solid OpenSCAD_Model
  facet normal -1 0 0
    outer loop
      vertex 0 0 0
      vertex 0 20 20
      vertex 0 20 0
    endloop
  endfacet
  facet normal -1 -0 0
    outer loop
      vertex 0 20 20
      vertex 0 0 0
      vertex 0 0 20
    endloop
  endfacet
  facet normal -0 0 1
    outer loop
      vertex 0 20 20
      vertex 20 0 20
      vertex 20 20 20
    endloop
  endfacet
  facet normal 0 0 1
    outer loop
      vertex 20 0 20
      vertex 0 20 20
      vertex 0 0 20
    endloop
  endfacet
  facet normal 1 -0 0
    outer loop
      vertex 20 0 20
      vertex 20 20 0
      vertex 20 20 20
    endloop
  endfacet
  facet normal 1 0 0
    outer loop
      vertex 20 20 0
      vertex 20 0 20
      vertex 20 0 0
    endloop
  endfacet
  facet normal 0 0 -1
    outer loop
      vertex 0 0 0
      vertex 9 20 0
      vertex 9 0 0
    endloop
  endfacet
  facet normal -0 0 -1
    outer loop
      vertex 9 20 0
      vertex 0 0 0
      vertex 0 20 0
    endloop
  endfacet
  facet normal 0 0 -1
    outer loop
      vertex 11 0 0
      vertex 20 20 0
      vertex 20 0 0
    endloop
  endfacet
  facet normal -0 0 -1
    outer loop
      vertex 20 20 0
      vertex 11 0 0
      vertex 11 20 0
    endloop
  endfacet
  facet normal 0 -1 0
    outer loop
      vertex 0 0 20
      vertex 9 0 15
      vertex 20 0 20
    endloop
  endfacet
  facet normal 0 -1 0
    outer loop
      vertex 0 0 0
      vertex 9 0 15
      vertex 0 0 20
    endloop
  endfacet
  facet normal 0 -1 -0
    outer loop
      vertex 9 0 15
      vertex 0 0 0
      vertex 9 0 0
    endloop
  endfacet
  facet normal 0 -1 0
    outer loop
      vertex 11 0 15
      vertex 20 0 20
      vertex 9 0 15
    endloop
  endfacet
  facet normal 0 -1 0
    outer loop
      vertex 20 0 0
      vertex 11 0 15
      vertex 11 0 0
    endloop
  endfacet
  facet normal 0 -1 0
    outer loop
      vertex 11 0 15
      vertex 20 0 0
      vertex 20 0 20
    endloop
  endfacet
  facet normal 0 1 0
    outer loop
      vertex 20 20 20
      vertex 11 20 15
      vertex 0 20 20
    endloop
  endfacet
  facet normal 0 1 -0
    outer loop
      vertex 20 20 0
      vertex 11 20 15
      vertex 20 20 20
    endloop
  endfacet
  facet normal 0 1 0
    outer loop
      vertex 11 20 15
      vertex 20 20 0
      vertex 11 20 0
    endloop
  endfacet
  facet normal 0 1 -0
    outer loop
      vertex 9 20 15
      vertex 0 20 20
      vertex 11 20 15
    endloop
  endfacet
  facet normal 0 1 0
    outer loop
      vertex 0 20 0
      vertex 9 20 15
      vertex 9 20 0
    endloop
  endfacet
  facet normal 0 1 0
    outer loop
      vertex 9 20 15
      vertex 0 20 0
      vertex 0 20 20
    endloop
  endfacet
  facet normal 1 -0 0
    outer loop
      vertex 9 0 15
      vertex 9 20 0
      vertex 9 20 15
    endloop
  endfacet
  facet normal 1 0 0
    outer loop
      vertex 9 20 0
      vertex 9 0 15
      vertex 9 0 0
    endloop
  endfacet
  facet normal 0 0 -1
    outer loop
      vertex 9 0 15
      vertex 11 20 15
      vertex 11 0 15
    endloop
  endfacet
  facet normal -0 0 -1
    outer loop
      vertex 11 20 15
      vertex 9 0 15
      vertex 9 20 15
    endloop
  endfacet
  facet normal -1 0 0
    outer loop
      vertex 11 0 0
      vertex 11 20 15
      vertex 11 20 0
    endloop
  endfacet
  facet normal -1 -0 0
    outer loop
      vertex 11 20 15
      vertex 11 0 0
      vertex 11 0 15
    endloop
  endfacet
endsolid OpenSCAD_Model
