solid OpenSCAD_Model
  facet normal -1 0 0
    outer loop
      vertex 0 78 0
      vertex 0 74 4
      vertex 0 78 30
    endloop
  endfacet
  facet normal -1 0 0
    outer loop
      vertex 0 78 0
      vertex 0 4 4
      vertex 0 74 4
    endloop
  endfacet
  facet normal -1 0 0
    outer loop
      vertex 0 0 0
      vertex 0 4 4
      vertex 0 78 0
    endloop
  endfacet
  facet normal -1 0 0
    outer loop
      vertex 0 0 30
      vertex 0 4 4
      vertex 0 0 0
    endloop
  endfacet
  facet normal -1 0 0
    outer loop
      vertex 0 4 4
      vertex 0 0 30
      vertex 0 4 34
    endloop
  endfacet
  facet normal -1 0 0
    outer loop
      vertex 0 -20 34
      vertex 0 0 30
      vertex 0 -20 30
    endloop
  endfacet
  facet normal -1 0 0
    outer loop
      vertex 0 0 30
      vertex 0 -20 34
      vertex 0 4 34
    endloop
  endfacet
  facet normal -1 0 0
    outer loop
      vertex 0 78 30
      vertex 0 98 34
      vertex 0 98 30
    endloop
  endfacet
  facet normal -1 0 0
    outer loop
      vertex 0 78 30
      vertex 0 74 34
      vertex 0 98 34
    endloop
  endfacet
  facet normal -1 0 0
    outer loop
      vertex 0 74 34
      vertex 0 78 30
      vertex 0 74 4
    endloop
  endfacet
  facet normal -0 0 1
    outer loop
      vertex 0 74 4
      vertex 20 4 4
      vertex 20 74 4
    endloop
  endfacet
  facet normal 0 0 1
    outer loop
      vertex 20 4 4
      vertex 0 74 4
      vertex 0 4 4
    endloop
  endfacet
  facet normal 1 0 0
    outer loop
      vertex 20 4 34
      vertex 20 0 30
      vertex 20 4 4
    endloop
  endfacet
  facet normal 1 -0 0
    outer loop
      vertex 20 -20 34
      vertex 20 0 30
      vertex 20 4 34
    endloop
  endfacet
  facet normal 1 0 0
    outer loop
      vertex 20 0 30
      vertex 20 -20 34
      vertex 20 -20 30
    endloop
  endfacet
  facet normal 1 0 0
    outer loop
      vertex 20 98 34
      vertex 20 78 30
      vertex 20 98 30
    endloop
  endfacet
  facet normal 1 -0 0
    outer loop
      vertex 20 74 34
      vertex 20 78 30
      vertex 20 98 34
    endloop
  endfacet
  facet normal 1 0 0
    outer loop
      vertex 20 74 4
      vertex 20 78 30
      vertex 20 74 34
    endloop
  endfacet
  facet normal 1 0 0
    outer loop
      vertex 20 78 30
      vertex 20 74 4
      vertex 20 78 0
    endloop
  endfacet
  facet normal 1 -0 0
    outer loop
      vertex 20 4 4
      vertex 20 78 0
      vertex 20 74 4
    endloop
  endfacet
  facet normal 1 0 0
    outer loop
      vertex 20 4 4
      vertex 20 0 0
      vertex 20 78 0
    endloop
  endfacet
  facet normal 1 0 0
    outer loop
      vertex 20 0 0
      vertex 20 4 4
      vertex 20 0 30
    endloop
  endfacet
  facet normal 0 0 -1
    outer loop
      vertex 0 0 0
      vertex 20 78 0
      vertex 20 0 0
    endloop
  endfacet
  facet normal -0 0 -1
    outer loop
      vertex 20 78 0
      vertex 0 0 0
      vertex 0 78 0
    endloop
  endfacet
  facet normal 0 -1 0
    outer loop
      vertex 0 0 0
      vertex 20 0 30
      vertex 0 0 30
    endloop
  endfacet
  facet normal 0 -1 -0
    outer loop
      vertex 20 0 30
      vertex 0 0 0
      vertex 20 0 0
    endloop
  endfacet
  facet normal 0 -1 0
    outer loop
      vertex 0 74 4
      vertex 20 74 34
      vertex 0 74 34
    endloop
  endfacet
  facet normal 0 -1 -0
    outer loop
      vertex 20 74 34
      vertex 0 74 4
      vertex 20 74 4
    endloop
  endfacet
  facet normal 0 0 -1
    outer loop
      vertex 0 -20 30
      vertex 20 0 30
      vertex 20 -20 30
    endloop
  endfacet
  facet normal -0 0 -1
    outer loop
      vertex 20 0 30
      vertex 0 -20 30
      vertex 0 0 30
    endloop
  endfacet
  facet normal 0 1 -0
    outer loop
      vertex 20 4 4
      vertex 0 4 34
      vertex 20 4 34
    endloop
  endfacet
  facet normal 0 1 0
    outer loop
      vertex 0 4 34
      vertex 20 4 4
      vertex 0 4 4
    endloop
  endfacet
  facet normal -0 0 1
    outer loop
      vertex 0 4 34
      vertex 20 -20 34
      vertex 20 4 34
    endloop
  endfacet
  facet normal 0 0 1
    outer loop
      vertex 20 -20 34
      vertex 0 4 34
      vertex 0 -20 34
    endloop
  endfacet
  facet normal 0 -1 0
    outer loop
      vertex 0 -20 30
      vertex 20 -20 34
      vertex 0 -20 34
    endloop
  endfacet
  facet normal 0 -1 -0
    outer loop
      vertex 20 -20 34
      vertex 0 -20 30
      vertex 20 -20 30
    endloop
  endfacet
  facet normal 0 0 -1
    outer loop
      vertex 0 78 30
      vertex 20 98 30
      vertex 20 78 30
    endloop
  endfacet
  facet normal -0 0 -1
    outer loop
      vertex 20 98 30
      vertex 0 78 30
      vertex 0 98 30
    endloop
  endfacet
  facet normal 0 1 -0
    outer loop
      vertex 20 78 0
      vertex 0 78 30
      vertex 20 78 30
    endloop
  endfacet
  facet normal 0 1 0
    outer loop
      vertex 0 78 30
      vertex 20 78 0
      vertex 0 78 0
    endloop
  endfacet
  facet normal -0 0 1
    outer loop
      vertex 0 98 34
      vertex 20 74 34
      vertex 20 98 34
    endloop
  endfacet
  facet normal 0 0 1
    outer loop
      vertex 20 74 34
      vertex 0 98 34
      vertex 0 74 34
    endloop
  endfacet
  facet normal 0 1 -0
    outer loop
      vertex 20 98 30
      vertex 0 98 34
      vertex 20 98 34
    endloop
  endfacet
  facet normal 0 1 0
    outer loop
      vertex 0 98 34
      vertex 20 98 30
      vertex 0 98 30
    endloop
  endfacet
endsolid OpenSCAD_Model
