solid OpenSCAD_Model
  facet normal -1 0 0
    outer loop
      vertex -15 -13 0
      vertex -15 15 3
      vertex -15 15 0
    endloop
  endfacet
  facet normal -1 0 0
    outer loop
      vertex -15 -13 0
      vertex -15 -13.8038 3
      vertex -15 15 3
    endloop
  endfacet
  facet normal -1 0 0
    outer loop
      vertex -15 -15.8978 -0.776457
      vertex -15 -13.8038 3
      vertex -15 -13 0
    endloop
  endfacet
  facet normal -1 0 0
    outer loop
      vertex -15 -23.6623 28.2013
      vertex -15 -13.8038 3
      vertex -15 -15.8978 -0.776457
    endloop
  endfacet
  facet normal -1 0 0
    outer loop
      vertex -15 -13.8038 3
      vertex -15 -23.6623 28.2013
      vertex -15 -20.7646 28.9778
    endloop
  endfacet
  facet normal 0 0 1
    outer loop
      vertex 15 15 3
      vertex 4 4 3
      vertex 15 -13.8038 3
    endloop
  endfacet
  facet normal 0 0 1
    outer loop
      vertex 15 15 3
      vertex -4 4 3
      vertex 4 4 3
    endloop
  endfacet
  facet normal 0 0 1
    outer loop
      vertex -15 -13.8038 3
      vertex -4 4 3
      vertex -15 15 3
    endloop
  endfacet
  facet normal -0 0 1
    outer loop
      vertex -15 15 3
      vertex -4 4 3
      vertex 15 15 3
    endloop
  endfacet
  facet normal -0 0 1
    outer loop
      vertex 4 -4 3
      vertex 15 -13.8038 3
      vertex 4 4 3
    endloop
  endfacet
  facet normal -0 0 1
    outer loop
      vertex -4 -4 3
      vertex 15 -13.8038 3
      vertex 4 -4 3
    endloop
  endfacet
  facet normal 0 0 1
    outer loop
      vertex -4 -4 3
      vertex -15 -13.8038 3
      vertex 15 -13.8038 3
    endloop
  endfacet
  facet normal 0 0 1
    outer loop
      vertex -4 4 3
      vertex -15 -13.8038 3
      vertex -4 -4 3
    endloop
  endfacet
  facet normal 1 0 0
    outer loop
      vertex 15 15 3
      vertex 15 -13 0
      vertex 15 15 0
    endloop
  endfacet
  facet normal 1 -0 0
    outer loop
      vertex 15 -13.8038 3
      vertex 15 -13 0
      vertex 15 15 3
    endloop
  endfacet
  facet normal 1 0 0
    outer loop
      vertex 15 -13.8038 3
      vertex 15 -15.8978 -0.776457
      vertex 15 -13 0
    endloop
  endfacet
  facet normal 1 -0 0
    outer loop
      vertex 15 -23.6623 28.2013
      vertex 15 -13.8038 3
      vertex 15 -20.7646 28.9778
    endloop
  endfacet
  facet normal 1 0 0
    outer loop
      vertex 15 -13.8038 3
      vertex 15 -23.6623 28.2013
      vertex 15 -15.8978 -0.776457
    endloop
  endfacet
  facet normal 0 1 -0
    outer loop
      vertex 15 15 0
      vertex -15 15 3
      vertex 15 15 3
    endloop
  endfacet
  facet normal 0 1 0
    outer loop
      vertex -15 15 3
      vertex 15 15 0
      vertex -15 15 0
    endloop
  endfacet
  facet normal 0 0 -1
    outer loop
      vertex 4 4 0
      vertex 15 -13 0
      vertex 4 -4 0
    endloop
  endfacet
  facet normal 0 0 -1
    outer loop
      vertex 15 -13 0
      vertex -4 -4 0
      vertex 4 -4 0
    endloop
  endfacet
  facet normal -0 0 -1
    outer loop
      vertex -4 -4 0
      vertex -15 -13 0
      vertex -4 4 0
    endloop
  endfacet
  facet normal 0 0 -1
    outer loop
      vertex -15 -13 0
      vertex -4 -4 0
      vertex 15 -13 0
    endloop
  endfacet
  facet normal 0 0 -1
    outer loop
      vertex 15 -13 0
      vertex 4 4 0
      vertex 15 15 0
    endloop
  endfacet
  facet normal 0 0 -1
    outer loop
      vertex -4 4 0
      vertex 15 15 0
      vertex 4 4 0
    endloop
  endfacet
  facet normal 0 0 -1
    outer loop
      vertex -4 4 0
      vertex -15 15 0
      vertex 15 15 0
    endloop
  endfacet
  facet normal 0 0 -1
    outer loop
      vertex -15 15 0
      vertex -4 4 0
      vertex -15 -13 0
    endloop
  endfacet
  facet normal 1 -0 0
    outer loop
      vertex -4 -4 3
      vertex -4 4 0
      vertex -4 4 3
    endloop
  endfacet
  facet normal 1 0 0
    outer loop
      vertex -4 4 0
      vertex -4 -4 3
      vertex -4 -4 0
    endloop
  endfacet
  facet normal -1 0 0
    outer loop
      vertex 4 -4 0
      vertex 4 4 3
      vertex 4 4 0
    endloop
  endfacet
  facet normal -1 -0 0
    outer loop
      vertex 4 4 3
      vertex 4 -4 0
      vertex 4 -4 3
    endloop
  endfacet
  facet normal 0 -1 0
    outer loop
      vertex -4 4 0
      vertex 4 4 3
      vertex -4 4 3
    endloop
  endfacet
  facet normal 0 -1 -0
    outer loop
      vertex 4 4 3
      vertex -4 4 0
      vertex 4 4 0
    endloop
  endfacet
  facet normal 0 1 -0
    outer loop
      vertex 4 -4 0
      vertex -4 -4 3
      vertex 4 -4 3
    endloop
  endfacet
  facet normal 0 1 0
    outer loop
      vertex -4 -4 3
      vertex 4 -4 0
      vertex -4 -4 0
    endloop
  endfacet
  facet normal 0 -0.965926 -0.258819
    outer loop
      vertex -15 -15.8978 -0.776457
      vertex 15 -23.6623 28.2013
      vertex -15 -23.6623 28.2013
    endloop
  endfacet
  facet normal 0 -0.965926 -0.258819
    outer loop
      vertex 15 -23.6623 28.2013
      vertex -15 -15.8978 -0.776457
      vertex 15 -15.8978 -0.776457
    endloop
  endfacet
  facet normal 0 -0.25882 0.965926
    outer loop
      vertex -15 -20.7646 28.9778
      vertex 15 -23.6623 28.2013
      vertex 15 -20.7646 28.9778
    endloop
  endfacet
  facet normal 0 -0.25882 0.965926
    outer loop
      vertex 15 -23.6623 28.2013
      vertex -15 -20.7646 28.9778
      vertex -15 -23.6623 28.2013
    endloop
  endfacet
  facet normal 0 0.965926 0.258819
    outer loop
      vertex 15 -13.8038 3
      vertex -15 -20.7646 28.9778
      vertex 15 -20.7646 28.9778
    endloop
  endfacet
  facet normal 0 0.965926 0.258819
    outer loop
      vertex -15 -20.7646 28.9778
      vertex 15 -13.8038 3
      vertex -15 -13.8038 3
    endloop
  endfacet
  facet normal 0 0.258819 -0.965926
    outer loop
      vertex -15 -15.8978 -0.776457
      vertex 15 -13 0
      vertex 15 -15.8978 -0.776457
    endloop
  endfacet
  facet normal 0 0.258819 -0.965926
    outer loop
      vertex 15 -13 0
      vertex -15 -15.8978 -0.776457
      vertex -15 -13 0
    endloop
  endfacet
endsolid OpenSCAD_Model
